HIERARCHY
ROOT Hips
{
	OFFSET 0.000000 0.000000 0.000000
	CHANNELS 6 Xposition Yposition Zposition Zrotation Xrotation Yrotation
	JOINT Spine
	{
		OFFSET 0.000000 -0.000011 67.023643
		CHANNELS 6 Xposition Yposition Zposition Zrotation Xrotation Yrotation
		JOINT Spine1
		{
			OFFSET 0.000000 -0.000030 182.901688
			CHANNELS 6 Xposition Yposition Zposition Zrotation Xrotation Yrotation
			JOINT Neck
			{
				OFFSET 0.000000 -0.000032 199.248917
				CHANNELS 6 Xposition Yposition Zposition Zrotation Xrotation Yrotation
				JOINT Head
				{
					OFFSET 0.000000 -16.347250 126.691040
					CHANNELS 6 Xposition Yposition Zposition Zrotation Xrotation Yrotation
					End Site
					{
						OFFSET 0.000000 -0.000026 163.472275
					}
				}
			}
			JOINT LeftShoulder
			{
				OFFSET 32.919056 4.321093 160.883286
				CHANNELS 6 Xposition Yposition Zposition Zrotation Xrotation Yrotation
				JOINT LeftArm
				{
					OFFSET 117.464363 0.000000 0.000000
					CHANNELS 6 Xposition Yposition Zposition Zrotation Xrotation Yrotation
					JOINT LeftForeArm
					{
						OFFSET 230.328934 0.000000 0.000000
						CHANNELS 6 Xposition Yposition Zposition Zrotation Xrotation Yrotation
						JOINT LeftHand
						{
							OFFSET 214.060913 0.000000 0.000000
							CHANNELS 6 Xposition Yposition Zposition Zrotation Xrotation Yrotation
							End Site
							{
								OFFSET 122.604233 0.000000 0.000000
							}
						}
					}
				}
			}
			JOINT RightShoulder
			{
				OFFSET -32.464867 4.321093 160.883286
				CHANNELS 6 Xposition Yposition Zposition Zrotation Xrotation Yrotation
				JOINT RightArm
				{
					OFFSET -117.464333 0.000000 0.000000
					CHANNELS 6 Xposition Yposition Zposition Zrotation Xrotation Yrotation
					JOINT RightForeArm
					{
						OFFSET -230.328964 0.000000 0.000000
						CHANNELS 6 Xposition Yposition Zposition Zrotation Xrotation Yrotation
						JOINT RightHand
						{
							OFFSET -214.060913 0.000000 0.000000
							CHANNELS 6 Xposition Yposition Zposition Zrotation Xrotation Yrotation
							End Site
							{
								OFFSET -122.604233 0.000000 0.000000
							}
						}
					}
				}
			}
		}
	}
	JOINT LeftUpLeg
	{
		OFFSET 81.736153 0.000000 0.000000
		CHANNELS 6 Xposition Yposition Zposition Zrotation Xrotation Yrotation
		JOINT LeftLeg
		{
			OFFSET 0.000000 0.000056 -343.753815
			CHANNELS 6 Xposition Yposition Zposition Zrotation Xrotation Yrotation
			JOINT LeftFoot
			{
				OFFSET 0.000000 0.000059 -360.387390
				CHANNELS 6 Xposition Yposition Zposition Zrotation Xrotation Yrotation
				JOINT LeftToeBase
				{
					OFFSET 0.000000 -122.604233 -53.128510
					CHANNELS 6 Xposition Yposition Zposition Zrotation Xrotation Yrotation
					End Site
					{
						OFFSET 0.000000 -32.694462 0.000000
					}
				}
			}
		}
	}
	JOINT RightUpLeg
	{
		OFFSET -81.736153 0.000000 0.000000
		CHANNELS 6 Xposition Yposition Zposition Zrotation Xrotation Yrotation
		JOINT RightLeg
		{
			OFFSET 0.000000 0.000056 -343.753815
			CHANNELS 6 Xposition Yposition Zposition Zrotation Xrotation Yrotation
			JOINT RightFoot
			{
				OFFSET 0.000000 0.000059 -360.387390
				CHANNELS 6 Xposition Yposition Zposition Zrotation Xrotation Yrotation
				JOINT RightToeBase
				{
					OFFSET 0.000000 -122.604233 -53.128510
					CHANNELS 6 Xposition Yposition Zposition Zrotation Xrotation Yrotation
					End Site
					{
						OFFSET 0.000000 -32.694462 0.000000
					}
				}
			}
		}
	}
}
MOTION
Frames: 8
Frame Time: 0.041667
56.996330 6.636724 720.057434 1.173671 3.666732 -0.807124 0.000005 -0.000014 67.023651 -1.847647 -18.301598 1.405340 -0.000005 -0.000075 182.901733 0.089737 18.376771 -4.911330 -0.000007 -0.000043 199.248962 5.272013 9.340851 -6.605152 0.000028 -16.347223 126.691162 6.102323 6.234609 5.064290 32.919056 4.321081 160.883438 -0.029521 -8.784563 -20.891071 117.464432 0.000012 0.000093 -10.647318 -2.311624 14.178438 230.328934 -0.000007 -0.000089 -9.479159 -8.495363 -6.457837 214.061050 -0.000045 0.000110 -0.717916 -9.070248 7.188579 -32.464890 4.321080 160.883347 -9.378211 -5.306543 17.114528 -117.464363 -0.000025 -0.000085 24.952496 26.723916 -9.875352 -230.328827 -0.000055 -0.000055 73.866010 38.811327 44.489438 -214.060989 0.000026 0.000087 0.558090 5.926860 34.414294 81.736160 -0.000005 -0.000020 -1.840468 -6.981017 2.265687 -0.000004 0.000056 -343.753784 1.892999 13.521550 -1.381336 -0.000001 0.000034 -360.387360 21.597673 -6.174147 -0.554624 -0.000026 -122.604233 -53.128513 -0.000001 0.000001 0.000001 -81.736153 -0.000004 0.000022 0.775960 -5.844595 -1.143924 0.000003 0.000053 -343.753784 -0.759460 12.801838 -1.718270 -0.000004 0.000067 -360.387421 -21.609684 -11.746231 -3.434375 0.000001 -122.604233 -53.128510 -0.000001 -0.000001 -0.000001 
57.242020 6.772061 720.100281 1.178011 3.740224 -0.831998 -0.000003 -0.000008 67.023582 -1.845118 -18.272247 1.407582 0.000000 -0.000068 182.901733 0.083549 18.292092 -4.890130 0.000007 -0.000015 199.248825 5.288404 9.301896 -6.592268 -0.000010 -16.347317 126.691147 6.121634 6.223247 5.064262 32.919056 4.321089 160.883270 0.000631 -8.769754 -20.866563 117.464348 -0.000003 -0.000148 -10.651701 -2.437838 14.183762 230.329041 -0.000010 0.000077 -9.473699 -8.444765 -6.427880 214.060928 -0.000011 0.000154 -0.718192 -9.017013 7.196827 -32.464882 4.321106 160.883301 -9.345516 -5.292752 17.140361 -117.464333 -0.000007 -0.000070 24.907342 26.773788 -9.923799 -230.328842 -0.000087 -0.000073 73.868428 38.846786 44.595121 -214.060928 0.000126 0.000074 0.516386 5.855656 34.416183 81.736153 0.000001 -0.000049 -1.826027 -7.566439 2.288691 0.000011 0.000055 -343.753815 1.602105 14.514475 -1.266243 -0.000005 0.000031 -360.387390 21.905878 -6.489523 -0.503469 -0.000006 -122.604233 -53.128513 -0.000002 0.000002 0.000001 -81.736160 0.000004 -0.000064 0.793063 -5.936825 -1.049029 0.000003 0.000060 -343.753845 -0.736735 12.826175 -1.815644 -0.000002 0.000046 -360.387329 -21.623747 -11.758551 -3.418324 -0.000000 -122.604233 -53.128506 0.000002 -0.000000 0.000001 
57.524986 6.944273 720.156372 1.198488 3.814530 -0.857657 -0.000000 -0.000020 67.023674 -1.853329 -18.220088 1.408539 0.000007 -0.000041 182.901733 0.072852 18.185454 -4.868223 -0.000007 -0.000036 199.248825 5.299134 9.241393 -6.559156 -0.000021 -16.347235 126.690819 6.133125 6.236980 5.039939 32.919064 4.321095 160.883194 0.019820 -8.754151 -20.850582 117.464317 0.000016 -0.000049 -10.647688 -2.456207 14.207600 230.329056 -0.000009 -0.000026 -9.499442 -8.457287 -6.430993 214.061127 0.000058 -0.000069 -0.712839 -9.030795 7.182730 -32.464893 4.321095 160.883163 -9.348222 -5.301896 17.151474 -117.464310 -0.000018 -0.000336 24.894984 26.810898 -9.945104 -230.328857 -0.000060 0.000065 73.857151 38.891015 44.678337 -214.060852 0.000009 -0.000012 0.494150 5.832911 34.380102 81.736160 -0.000006 0.000010 -1.776933 -8.212226 2.320679 -0.000009 0.000053 -343.753815 1.367216 15.629915 -1.173526 0.000022 0.000034 -360.387390 22.048952 -6.949745 -0.618631 -0.000013 -122.604233 -53.128510 -0.000005 -0.000001 -0.000000 -81.736160 -0.000007 0.000044 0.811878 -6.032925 -0.949052 -0.000004 0.000058 -343.753906 -0.758925 12.844766 -1.911856 -0.000019 0.000060 -360.387329 -21.628665 -11.753605 -3.419706 -0.000002 -122.604233 -53.128513 -0.000000 0.000001 -0.000000 
57.864582 7.132361 720.215820 1.248936 3.885144 -0.884641 0.000001 -0.000018 67.023727 -1.884037 -18.160966 1.381479 0.000000 -0.000055 182.901733 0.049312 18.078893 -4.802020 -0.000000 -0.000049 199.249069 5.308307 9.188281 -6.540247 0.000002 -16.347301 126.690979 6.145261 6.215324 5.029123 32.919060 4.321078 160.883286 0.051622 -8.720300 -20.851009 117.464401 0.000008 -0.000028 -10.661570 -2.504052 14.230881 230.329071 -0.000009 -0.000020 -9.504001 -8.469719 -6.434646 214.060944 0.000028 0.000120 -0.667247 -9.041063 7.206357 -32.464878 4.321095 160.883545 -9.361451 -5.277566 17.148744 -117.464386 -0.000021 -0.000040 24.852432 26.697526 -9.925084 -230.328842 -0.000096 -0.000041 74.433407 38.424691 44.391291 -214.060959 0.000057 -0.000016 4.027959 6.136426 32.780072 81.736153 -0.000007 0.000097 -1.830830 -8.920417 2.344478 -0.000012 0.000059 -343.753815 0.986415 16.879421 -1.004967 0.000015 0.000044 -360.387329 22.461328 -7.563323 -0.506779 0.000002 -122.604218 -53.128510 0.000000 0.000001 -0.000001 -81.736153 -0.000006 0.000082 0.830541 -6.127320 -0.840834 0.000001 0.000057 -343.753693 -1.177498 12.867646 -1.925632 -0.000009 0.000048 -360.387421 -21.270801 -11.738821 -3.394128 -0.000003 -122.604233 -53.128510 -0.000001 0.000000 0.000000 
58.223763 7.316680 720.276855 1.310408 3.958980 -0.899132 0.000006 -0.000016 67.023674 -1.903995 -18.110716 1.352904 -0.000002 -0.000027 182.901703 0.032765 17.989865 -4.752472 -0.000011 -0.000036 199.248886 5.292005 9.120411 -6.525540 -0.000013 -16.347239 126.690971 6.133523 6.196776 5.031560 32.919052 4.321096 160.883270 0.043918 -8.675676 -20.839536 117.464470 -0.000001 0.000037 -10.657516 -2.550036 14.240705 230.328979 -0.000023 -0.000081 -9.506033 -8.460228 -6.458059 214.061005 -0.000003 0.000092 -0.702332 -9.035997 7.237059 -32.464886 4.321092 160.883270 -9.342895 -5.311204 17.148090 -117.464363 -0.000017 0.000033 24.776042 26.675761 -9.915393 -230.328918 0.000013 0.000066 74.053321 38.990514 44.541798 -214.060928 0.000005 -0.000045 0.302335 5.894715 34.485075 81.736160 -0.000005 0.000025 -1.803667 -9.647461 2.394717 0.000001 0.000064 -343.753815 0.710488 18.219542 -0.892425 0.000001 0.000060 -360.387329 22.657223 -8.277843 -0.445514 -0.000009 -122.604233 -53.128513 -0.000001 0.000002 -0.000000 -81.736153 -0.000008 -0.000009 0.850024 -6.228267 -0.743084 0.000009 0.000054 -343.753784 -1.207410 12.905703 -2.027144 -0.000006 0.000067 -360.387360 -21.304197 -11.733315 -3.420497 -0.000003 -122.604233 -53.128506 0.000003 -0.000000 0.000001 
58.676754 7.535277 720.356262 1.399457 4.029296 -0.902151 0.000008 -0.000016 67.023697 -1.938022 -18.038764 1.299148 0.000002 -0.000048 182.901733 0.011094 17.883151 -4.695247 0.000003 -0.000029 199.248901 5.272975 9.044312 -6.505306 -0.000007 -16.347216 126.691025 6.118747 6.176255 5.026372 32.919086 4.321101 160.883408 0.058142 -8.634005 -20.830503 117.464363 0.000011 -0.000210 -10.687047 -2.689795 14.251922 230.328964 0.000014 0.000038 -9.471409 -8.461629 -6.448368 214.060959 0.000028 -0.000104 -0.677186 -9.033201 7.257377 -32.464882 4.321101 160.883286 -9.368392 -5.270045 17.166635 -117.464386 -0.000028 -0.000024 24.693654 26.688338 -9.916343 -230.328842 -0.000052 -0.000050 73.946982 39.085126 44.732473 -214.060913 0.000116 0.000116 0.272331 5.897225 34.499893 81.736153 -0.000010 0.000049 -2.041554 -10.385846 2.374945 -0.000003 0.000061 -343.753876 0.634540 19.441804 -0.706304 0.000008 0.000060 -360.387390 22.810069 -8.865703 -0.463868 -0.000000 -122.604218 -53.128506 -0.000000 -0.000002 0.000001 -81.736145 -0.000010 0.000013 0.867254 -6.317192 -0.656938 -0.000005 0.000056 -343.753845 -1.079819 12.930586 -2.153302 -0.000015 0.000026 -360.387421 -21.505920 -11.714146 -3.424513 0.000008 -122.604263 -53.128506 0.000001 -0.000002 -0.000001 
59.147320 7.684402 720.433472 1.509357 4.104960 -0.904736 0.000005 -0.000013 67.023720 -1.987820 -18.005791 1.259821 0.000005 -0.000055 182.901672 -0.008833 17.819800 -4.677105 -0.000024 -0.000043 199.248795 5.254995 8.970365 -6.463453 -0.000023 -16.347227 126.691109 6.105600 6.124053 5.032738 32.919044 4.321091 160.883148 0.058154 -8.589781 -20.807891 117.464432 0.000001 0.000107 -10.698746 -2.753683 14.281526 230.328979 -0.000014 -0.000071 -9.467798 -8.479104 -6.479280 214.060928 0.000022 0.000090 -0.715924 -9.055582 7.281461 -32.464897 4.321095 160.883179 -9.381140 -5.268379 17.189373 -117.464386 -0.000021 -0.000021 24.582061 26.665373 -9.878563 -230.328918 -0.000110 -0.000038 74.553980 38.576447 44.523135 -214.060913 0.000048 0.000106 4.003267 6.108749 32.800880 81.736153 0.000004 0.000123 -2.275085 -11.074027 2.339072 -0.000006 0.000045 -343.753845 0.424256 20.531060 -0.409064 0.000004 0.000067 -360.387329 23.005325 -9.411179 -0.808496 -0.000001 -122.604218 -53.128567 -0.000004 0.000002 -0.000000 -81.736153 0.000000 0.000074 0.883015 -6.402485 -0.590216 -0.000002 0.000061 -343.753815 -1.444846 12.937573 -2.136299 -0.000018 0.000047 -360.387329 -21.275063 -11.676974 -3.440156 -0.000003 -122.604233 -53.128510 0.000000 -0.000000 -0.000001 
60.933189 5.176695 721.778748 2.678233 3.013660 -0.077740 -0.000007 -0.000013 67.023636 -3.186653 -17.289181 -0.393051 -0.000002 -0.000062 182.901703 -0.445620 18.280300 -3.796801 -0.000011 -0.000036 199.248718 5.225505 8.865904 -6.456279 -0.000017 -16.347277 126.690903 6.082672 6.080844 5.017042 32.919064 4.321083 160.883011 0.012652 -8.580394 -20.817010 117.464333 0.000001 -0.000127 -10.684893 -2.705053 14.297001 230.328934 -0.000004 0.000039 -9.488198 -8.525874 -6.506450 214.060944 0.000016 0.000037 -0.681080 -9.103589 7.304329 -32.464890 4.321091 160.883118 -9.375767 -5.290188 17.154898 -117.464363 -0.000022 -0.000134 24.425375 26.595662 -9.804071 -230.328827 -0.000157 -0.000126 74.675189 38.619679 44.445486 -214.060928 0.000042 0.000137 3.998635 6.152383 32.802970 81.736145 0.000000 -0.000043 -3.885333 -10.350871 1.661881 -0.000015 0.000051 -343.753998 0.749004 21.357650 -0.453805 0.000011 0.000074 -360.387390 22.951756 -9.866225 -1.007144 -0.000004 -122.604263 -53.128513 -0.000003 0.000001 -0.000000 -81.736160 -0.000000 -0.000009 0.584007 -4.604567 -1.155392 -0.000003 0.000055 -343.753876 -1.947993 12.119055 -2.509394 -0.000006 0.000047 -360.387360 -21.719030 -10.727465 -3.521854 -0.000005 -122.604233 -53.128506 0.000001 -0.000002 -0.000000 
